<?xml version="1.0" encoding="iso-8859-1"?>
<!-- Generator: Adobe Illustrator 19.0.0, SVG Export Plug-In . SVG Version: 6.00 Build 0)  -->
<svg version="1.1" id="Capa_1" xmlns="http://www.w3.org/2000/svg" xmlns:xlink="http://www.w3.org/1999/xlink" x="0px" y="0px"
	 viewBox="0 0 512 512" style="enable-background:new 0 0 512 512;" xml:space="preserve">
<polygon style="fill:#E67500;" points="305,279.296 305,170.878 305,159.045 207,159.045 0,413.044 207,413.044 414,413.044 "/>
<path style="fill:#6BCD00;" d="M127.212,224.484c32.336-5.651,64.811,14.026,82.289,27.198c7.971,6.014,12.826,10.672,13.118,10.954
	l0.014,0.028c-0.125,0.26-3.113,6.325-8.628,14.762c-11.969,18.327-35.849,47.854-68.192,53.5
	c-47.572,8.317-95.429-38.165-95.429-38.165S79.639,232.8,127.212,224.484z"/>
<path style="fill:#D4FE9A;" d="M121.804,267.008l87.696-15.326c7.971,6.014,12.826,10.672,13.118,10.954l0.014,0.028
	c-0.125,0.26-3.113,6.325-8.628,14.762l-87.7,15.334l-2.248-12.87L121.804,267.008z"/>
<path style="fill:#5EAD00;" d="M127.212,224.484c32.336-5.651,64.811,14.026,82.289,27.198c7.971,6.014,12.826,10.672,13.118,10.954
	l0.014,0.028L50.382,292.761C50.382,292.761,79.639,232.8,127.212,224.484z"/>
<path style="fill:#B7FB4C;" d="M121.804,267.008l87.696-15.326c7.971,6.014,12.826,10.672,13.118,10.954l0.014,0.028l-98.576,17.226
	L121.804,267.008z"/>
<path style="fill:#6BCD00;" d="M268.947,189.759c-2.16,32.755-28.962,59.652-45.895,73.517c-7.729,6.322-13.403,9.937-13.746,10.154
	l-0.031,0.007c-0.223-0.183-5.409-4.521-12.302-11.876c-14.975-15.966-38.013-46.153-35.847-78.914
	c3.175-48.189,59.659-83.691,59.659-83.691S272.121,141.57,268.947,189.759z"/>
<path style="fill:#D4FE9A;" d="M228.909,174.445l-5.857,88.832c-7.729,6.322-13.403,9.937-13.746,10.154l-0.031,0.007
	c-0.223-0.183-5.409-4.521-12.302-11.876l5.851-88.838l13.036,0.86L228.909,174.445z"/>
<path style="fill:#5EAD00;" d="M268.947,189.759c-2.16,32.755-28.962,59.652-45.895,73.517c-7.729,6.322-13.403,9.937-13.746,10.154
	l-0.031,0.007l11.51-174.481C220.785,98.958,272.121,141.57,268.947,189.759z"/>
<path style="fill:#B7FB4C;" d="M228.909,174.445l-5.857,88.832c-7.729,6.322-13.403,9.937-13.746,10.154l-0.031,0.007l6.586-99.853
	L228.909,174.445z"/>
<polygon style="fill:#FF9A00;" points="305,159.045 98,413.044 305,413.044 512,413.044 "/>
<g>
	<rect x="252.99" y="332.921" style="fill:#C06200;" width="30.25" height="30.25"/>
	<rect x="332.87" y="282.561" style="fill:#C06200;" width="30.25" height="30.25"/>
</g>
<g>
</g>
<g>
</g>
<g>
</g>
<g>
</g>
<g>
</g>
<g>
</g>
<g>
</g>
<g>
</g>
<g>
</g>
<g>
</g>
<g>
</g>
<g>
</g>
<g>
</g>
<g>
</g>
<g>
</g>
</svg>
